<svg width="120" height="104" viewBox="0 0 120 104" fill="none" xmlns="http://www.w3.org/2000/svg">
    <path d="M59.5 104c24.577 0 44.5-4.254 44.5-9.5 0-5.247-19.923-9.5-44.5-9.5S15 89.253 15 94.5c0 5.246 19.923 9.5 44.5 9.5z" fill="#F8F8F8"/>
    <path fill-rule="evenodd" clip-rule="evenodd" d="M95 66.674 79.544 47.5c-.755-.912-1.859-1.464-3.021-1.464H42.682c-1.162 0-2.266.552-3.022 1.464L24 66.674v10.12h71v-10.12z" fill="#9ECDFF"/>
    <path fill-rule="evenodd" clip-rule="evenodd" d="M38.632 26h41.736A2.632 2.632 0 0 1 83 28.63v53.246a2.632 2.632 0 0 1-2.632 2.632H38.632A2.632 2.632 0 0 1 36 81.877V28.631A2.632 2.632 0 0 1 38.632 26z" fill="#E6F2FF"/>
    <path d="M94.855 90.5c-.51 2.02-2.301 3.5-4.431 3.5H28.576c-2.13 0-3.922-1.48-4.43-3.5a4.805 4.805 0 0 1-.147-1.178v-22.32h17.315c1.912 0 3.454 1.61 3.454 3.565v.026c0 1.955 1.559 3.533 3.471 3.533h22.885c1.913 0 3.472-1.593 3.472-3.548v-.008c0-1.955 1.541-3.57 3.454-3.57H95v22.323c0 .406-.05.8-.145 1.177z" fill="#C2DFFF"/>
    <path d="M45 36a1 1 0 1 0 0 2h29a1 1 0 1 0 0-2H45zM45 42a1 1 0 1 0 0 2h29a1 1 0 1 0 0-2H45zM45 48a1 1 0 1 0 0 2h16a1 1 0 1 0 0-2H45z" fill="#fff"/>
    <path fill-rule="evenodd" clip-rule="evenodd" d="m96.62 22.076-4.381 1.757a.622.622 0 0 1-.67-.133.684.684 0 0 1-.174-.682l1.241-4.117C90.976 16.95 90 14.57 90 12c0-6.628 6.492-12 14.501-12C112.507 0 119 5.372 119 12s-6.492 12-14.5 12c-2.905 0-5.61-.707-7.88-1.924z" fill="#C2DFFF"/>
    <path d="M100 12.5a1.5 1.5 0 1 1-3 0 1.5 1.5 0 0 1 3 0zM104.5 14a1.5 1.5 0 1 0 0-3 1.5 1.5 0 0 0 0 3zM110.5 14a1.5 1.5 0 1 0 0-3 1.5 1.5 0 0 0 0 3z" fill="#fff"/>
</svg>
